<svg width="52" height="52" viewBox="0 0 52 52" fill="none" xmlns="http://www.w3.org/2000/svg">
  <path d="M16.25 7.583a2.167 2.167 0 0 0-2.167 2.167v32.5a2.167 2.167 0 0 0 2.167 2.167h19.5a2.167 2.167 0 0 0 2.167-2.167V9.75a2.167 2.167 0 0 0-2.167-2.167h-19.5zm0-2.166h19.5A4.333 4.333 0 0 1 40.083 9.75v32.5a4.333 4.333 0 0 1-4.333 4.333h-19.5a4.333 4.333 0 0 1-4.333-4.333V9.75a4.333 4.333 0 0 1 4.333-4.333z" fill="#333"/>
  <path d="M23.833 39a2.167 2.167 0 1 0 4.334 0 2.167 2.167 0 0 0-4.334 0z" fill="#333"/>
  <path d="M19.5 11.917h13v21.666h-13V11.917z" fill="#333" fill-opacity="0.1"/>
</svg>
